# xmcd CD database file
#
# Track frame offsets:
#	150
#	26155
#	61090
#	109049
#	135268
#	165781
#	188993
#	223542
#
# Disc length: 3335 seconds
#
# Revision: 0
# Processed by: cddbd v1.5.2PL0 Copyright (c) Steve Scherf et al.
# Submitted via: CDex 1.70beta2
#
DISCID=600d0508
DTITLE=Piotr Lemanczyk, M Grzywacz, J Kochan, Jakob Dineseh - Piotr Lemanczyk - Freep
DYEAR=2005
DGENRE=Jazz
TTITLE0=Inner Urge
TTITLE1=Interference
TTITLE2=First Trip (for K)
TTITLE3=P. Mood
TTITLE4=Things never done
TTITLE5=Homeless
TTITLE6=explorer
TTITLE7=fascination
EXTD=YEAR: 2005
EXTT0=
EXTT1=
EXTT2=
EXTT3=
EXTT4=
EXTT5=
EXTT6=
EXTT7=
PLAYORDER=
